<?xml version="1.0" encoding="utf-8"?>
<!-- Generator: Adobe Illustrator 26.4.1, SVG Export Plug-In . SVG Version: 6.00 Build 0)  -->
<svg version="1.1" xmlns="http://www.w3.org/2000/svg" xmlns:xlink="http://www.w3.org/1999/xlink" x="0px" y="0px"
	 viewBox="0 0 1280 720" style="enable-background:new 0 0 1280 720;" xml:space="preserve">
<style type="text/css">
	.st0{display:none;}
	.st1{fill:#002439;}
	.st2{fill:#CCDDE7;}
	.st3{fill:#7A8D9D;}
	.st4{fill:#FED767;}
	.st5{fill:#F05138;}
	.st6{fill:#A36841;}
	.st7{fill:#0B3442;}
	.st8{fill:#4279BD;}
	.st9{opacity:0.33;fill:#333232;}
	.st10{fill:#3CAAF5;}
	.st11{opacity:0.33;fill:#3CAAF5;}
	.st12{opacity:0.33;fill:#2B2533;}
	.st13{fill:#A179FA;}
	.st14{opacity:0.33;fill:#A179FA;}
	.st15{opacity:0.33;fill:#331F1C;}
	.st16{fill:#FA5C4F;}
	.st17{opacity:0.33;fill:#FA5C4F;}
	.st18{opacity:0.33;fill:#1A3426;}
	.st19{fill:#32FB45;}
	.st20{opacity:0.33;fill:#E6E6E6;}
	.st21{opacity:0.33;fill:#332714;}
	.st22{fill:#FA9E3B;}
	.st23{opacity:0.33;fill:#FA9E3B;}
	.st24{opacity:0.33;fill:#333123;}
	.st25{fill:#FAE571;}
	.st26{opacity:0.33;fill:#FAE571;}
	.st27{opacity:0.33;fill:#2A3327;}
	.st28{fill:#D1FA86;}
	.st29{opacity:0.33;fill:#F2F2F2;}
	.st30{opacity:0.33;fill:#2D3233;}
	.st31{fill:#A3F7FA;}
	.st32{fill:#FBDFD9;}
	.st33{opacity:0.5;fill:#FBDFD9;}
	.st34{fill:#D1B79F;}
	.st35{opacity:0.5;fill:#D1B79F;}
	.st36{fill:#DB9C94;}
	.st37{opacity:0.5;fill:#DB9C94;}
	.st38{fill:#EFC088;}
	.st39{opacity:0.5;fill:#EFC088;}
	.st40{fill:#FCF3B2;}
	.st41{opacity:0.5;fill:#FCF3B2;}
	.st42{fill:#AC8C65;}
	.st43{opacity:0.5;fill:#AC8C65;}
	.st44{fill:#875534;}
	.st45{opacity:0.5;fill:#875534;}
	.st46{fill:#623919;}
	.st47{opacity:0.5;fill:#623919;}
	.st48{display:inline;}
	.st49{fill:#F5E0CD;}
	.st50{opacity:0.5;fill:#F5E0CD;}
	.st51{fill:#F2F2F2;}
	.st52{fill:none;stroke:#000000;stroke-width:10;stroke-miterlimit:10;}
	.st53{display:inline;fill:none;stroke:#000000;stroke-width:10;stroke-linecap:round;stroke-miterlimit:10;}
	.st54{display:inline;fill:none;stroke:#000000;stroke-width:5;stroke-linecap:round;stroke-miterlimit:10;}
	.st55{opacity:0.2;fill:#875534;}
	.st56{opacity:0.2;fill:#AC8C65;}
	.st57{opacity:0.2;fill:#623919;}
	.st58{opacity:0.2;fill:#DB9C94;}
	.st59{opacity:0.2;fill:#EFC088;}
	.st60{opacity:0.2;fill:#D1B79F;}
	.st61{display:inline;opacity:0.33;}
	.st62{display:inline;opacity:0.33;fill:none;stroke:#000000;stroke-width:10;stroke-miterlimit:10;}
	.st63{display:inline;opacity:0.11;}
	.st64{fill:#E6E6E6;}
	.st65{display:inline;fill:#A36841;stroke:#A36841;stroke-width:5;stroke-miterlimit:10;}
	.st66{display:inline;fill:#F05138;stroke:#F05138;stroke-width:5;stroke-miterlimit:10;}
	.st67{display:inline;fill:#FED767;stroke:#FED767;stroke-width:5;stroke-miterlimit:10;}
	.st68{display:inline;fill:#7A8D9D;stroke:#7A8D9D;stroke-width:5;stroke-miterlimit:10;}
	.st69{display:inline;fill:#0B3442;stroke:#0B3442;stroke-width:5;stroke-miterlimit:10;}
	.st70{fill:#FEE9AB;}
	.st71{opacity:0.5;fill:#FEE9AB;}
</style>
<g id="Background" class="st0">
	<rect class="st1" width="1280" height="720"/>
	<rect class="st2" width="1280" height="720"/>
</g>
<g id="Hair-0_00000016763411524126245510000008877469092432693657_">
	<g id="Hair-0-Gray">
		<polygon class="st3" points="391.59,455.21 406.97,479.94 432.88,479.94 440.02,445.81 456.16,479.94 475.77,479.94 487.58,441 
			502.53,479.94 519.31,479.94 534.29,439.11 547.77,479.94 563.7,479.94 580.51,439 592.17,479.94 608.83,479.94 627.08,440.77 
			635.68,479.94 655.24,479.94 674.57,445.63 677.76,479.94 687.85,479.94 687.85,303.34 376.62,303.34 376.62,479.94 
			390.12,479.94 		"/>
		<path class="st3" d="M692.22,484.31h-18.45l-2.26-24.35l-13.71,24.35h-25.63l-6.58-29.98l-13.96,29.98h-22.75l-9.1-31.98
			l-13.13,31.98h-22.02l-10.54-31.92l-11.7,31.92h-22.84l-11.46-29.85l-9.05,29.85H453.4l-11.76-24.86l-5.2,24.86h-31.9l-9.4-15.12
			l-0.9,15.12h-21.99V298.97h319.98V484.31z M681.74,475.57h1.74V307.71H380.99v167.86H386l2.05-34.34l21.35,34.34h19.94l9.08-43.39
			l20.52,43.39h13.6l14.56-48.03l18.44,48.03h10.73l18.24-49.75l16.43,49.75h9.84l20.49-49.9l14.21,49.9h10.58l22.53-48.36
			l10.62,48.36h13.49l24.94-44.27L681.74,475.57z"/>
	</g>
	<g id="Hair-0-Blond">
		<polygon class="st4" points="391.59,455.21 406.97,479.94 432.88,479.94 440.02,445.81 456.16,479.94 475.77,479.94 487.58,441 
			502.53,479.94 519.31,479.94 534.29,439.11 547.77,479.94 563.7,479.94 580.51,439 592.17,479.94 608.83,479.94 627.08,440.77 
			635.68,479.94 655.24,479.94 674.57,445.63 677.76,479.94 687.85,479.94 687.85,303.34 376.62,303.34 376.62,479.94 
			390.12,479.94 		"/>
		<path class="st4" d="M692.22,484.31h-18.45l-2.26-24.35l-13.71,24.35h-25.63l-6.58-29.98l-13.96,29.98h-22.75l-9.1-31.98
			l-13.13,31.98h-22.02l-10.54-31.92l-11.7,31.92h-22.84l-11.46-29.85l-9.05,29.85H453.4l-11.76-24.86l-5.2,24.86h-31.9l-9.4-15.12
			l-0.9,15.12h-21.99V298.97h319.98V484.31z M681.74,475.57h1.74V307.71H380.99v167.86H386l2.05-34.34l21.35,34.34h19.94l9.08-43.39
			l20.52,43.39h13.6l14.56-48.03l18.44,48.03h10.73l18.24-49.75l16.43,49.75h9.84l20.49-49.9l14.21,49.9h10.58l22.53-48.36
			l10.62,48.36h13.49l24.94-44.27L681.74,475.57z"/>
	</g>
	<g id="Hair-0-Red">
		<polygon class="st5" points="391.59,455.21 406.97,479.94 432.88,479.94 440.02,445.81 456.16,479.94 475.77,479.94 487.58,441 
			502.53,479.94 519.31,479.94 534.29,439.11 547.77,479.94 563.7,479.94 580.51,439 592.17,479.94 608.83,479.94 627.08,440.77 
			635.68,479.94 655.24,479.94 674.57,445.63 677.76,479.94 687.85,479.94 687.85,303.34 376.62,303.34 376.62,479.94 
			390.12,479.94 		"/>
		<path class="st5" d="M692.22,484.31h-18.45l-2.26-24.35l-13.71,24.35h-25.63l-6.58-29.98l-13.96,29.98h-22.75l-9.1-31.98
			l-13.13,31.98h-22.02l-10.54-31.92l-11.7,31.92h-22.84l-11.46-29.85l-9.05,29.85H453.4l-11.76-24.86l-5.2,24.86h-31.9l-9.4-15.12
			l-0.9,15.12h-21.99V298.97h319.98V484.31z M681.74,475.57h1.74V307.71H380.99v167.86H386l2.05-34.34l21.35,34.34h19.94l9.08-43.39
			l20.52,43.39h13.6l14.56-48.03l18.44,48.03h10.73l18.24-49.75l16.43,49.75h9.84l20.49-49.9l14.21,49.9h10.58l22.53-48.36
			l10.62,48.36h13.49l24.94-44.27L681.74,475.57z"/>
	</g>
	<g id="Hair-0-Brown">
		<polygon class="st6" points="391.59,455.21 406.97,479.94 432.88,479.94 440.02,445.81 456.16,479.94 475.77,479.94 487.58,441 
			502.53,479.94 519.31,479.94 534.29,439.11 547.77,479.94 563.7,479.94 580.51,439 592.17,479.94 608.83,479.94 627.08,440.77 
			635.68,479.94 655.24,479.94 674.57,445.63 677.76,479.94 687.85,479.94 687.85,303.34 376.62,303.34 376.62,479.94 
			390.12,479.94 		"/>
		<path class="st6" d="M692.22,484.31h-18.45l-2.26-24.35l-13.71,24.35h-25.63l-6.58-29.98l-13.96,29.98h-22.75l-9.1-31.98
			l-13.13,31.98h-22.02l-10.54-31.92l-11.7,31.92h-22.84l-11.46-29.85l-9.05,29.85H453.4l-11.76-24.86l-5.2,24.86h-31.9l-9.4-15.12
			l-0.9,15.12h-21.99V298.97h319.98V484.31z M681.74,475.57h1.74V307.71H380.99v167.86H386l2.05-34.34l21.35,34.34h19.94l9.08-43.39
			l20.52,43.39h13.6l14.56-48.03l18.44,48.03h10.73l18.24-49.75l16.43,49.75h9.84l20.49-49.9l14.21,49.9h10.58l22.53-48.36
			l10.62,48.36h13.49l24.94-44.27L681.74,475.57z"/>
	</g>
	<g id="Hair-0-Black">
		<polygon class="st7" points="391.59,455.21 406.97,479.94 432.88,479.94 440.02,445.81 456.16,479.94 475.77,479.94 487.58,441 
			502.53,479.94 519.31,479.94 534.29,439.11 547.77,479.94 563.7,479.94 580.51,439 592.17,479.94 608.83,479.94 627.08,440.77 
			635.68,479.94 655.24,479.94 674.57,445.63 677.76,479.94 687.85,479.94 687.85,303.34 376.62,303.34 376.62,479.94 
			390.12,479.94 		"/>
		<path class="st7" d="M692.22,484.31h-18.45l-2.26-24.35l-13.71,24.35h-25.63l-6.58-29.98l-13.96,29.98h-22.75l-9.1-31.98
			l-13.13,31.98h-22.02l-10.54-31.92l-11.7,31.92h-22.84l-11.46-29.85l-9.05,29.85H453.4l-11.76-24.86l-5.2,24.86h-31.9l-9.4-15.12
			l-0.9,15.12h-21.99V298.97h319.98V484.31z M681.74,475.57h1.74V307.71H380.99v167.86H386l2.05-34.34l21.35,34.34h19.94l9.08-43.39
			l20.52,43.39h13.6l14.56-48.03l18.44,48.03h10.73l18.24-49.75l16.43,49.75h9.84l20.49-49.9l14.21,49.9h10.58l22.53-48.36
			l10.62,48.36h13.49l24.94-44.27L681.74,475.57z"/>
	</g>
</g>
<g id="Pants-0">
	
		<rect id="Pants_00000075858295620958003940000014548360006853936031_" x="452.68" y="487.81" class="st8" width="171.35" height="68.19"/>
</g>
<g id="Shirt-7">
	<g id="Shirt_00000114067840586157440540000008845055267747257009_">
		<path id="Shadow" class="st9" d="M624.03,468.57v50.71c-25.34,3.11-54.09,5.25-85.68,5.25c-25.53,0-54.33-1.39-85.68-5.25
			c0-16.9,0-33.8,0-50.71H624.03z"/>
		<path id="Shirt" class="st10" d="M648.51,508.79c-32.51,4.11-69.48,6.95-110.16,6.99c-41.38,0.04-78.95-2.83-111.9-6.99
			c0-37.3,0-74.6,0-111.9h222.06V508.79z"/>
		<g id="Hilites">
			<path class="st11" d="M538.72,465.11c-39.34,0.3-45.03,7.48-46.57,10.31c-2.91,5.35-2.64,11.38-2.64,11.38
				c0,0,0.23,5.1,2.64,9.37c3.02,5.36,12.07,9.04,48.21,9.13c37.13,0.09,46.47-3.74,49.36-9.13c2.03-3.8,2.64-8.7,2.64-8.7
				c0.7-5.74-0.64-10.43-1.32-12.05C586.66,464.96,560.64,464.94,538.72,465.11z"/>
			<rect x="433.44" y="403.88" class="st11" width="36.72" height="99.66"/>
			<rect x="606.55" y="403.88" class="st11" width="36.72" height="99.66"/>
		</g>
	</g>
</g>
<g id="Shirt-6">
	<g id="Shirt_00000125589574259645368210000005301981886976552336_">
		<path id="Shadow_00000023984702793603450280000005207889515357954734_" class="st12" d="M624.03,468.57v50.71
			c-25.34,3.11-54.09,5.25-85.68,5.25c-25.53,0-54.33-1.39-85.68-5.25c0-16.9,0-33.8,0-50.71H624.03z"/>
		<path id="Shirt_00000176039655364236070970000005589860446475487110_" class="st13" d="M648.51,508.79
			c-32.51,4.11-69.48,6.95-110.16,6.99c-41.38,0.04-78.95-2.83-111.9-6.99c0-37.3,0-74.6,0-111.9h222.06V508.79z"/>
		<g id="Hilites_00000021803138439717229950000016065186289805997197_">
			<path class="st14" d="M538.72,465.11c-39.34,0.3-45.03,7.48-46.57,10.31c-2.91,5.35-2.64,11.38-2.64,11.38
				c0,0,0.23,5.1,2.64,9.37c3.02,5.36,12.07,9.04,48.21,9.13c37.13,0.09,46.47-3.74,49.36-9.13c2.03-3.8,2.64-8.7,2.64-8.7
				c0.7-5.74-0.64-10.43-1.32-12.05C586.66,464.96,560.64,464.94,538.72,465.11z"/>
			<rect x="433.44" y="403.88" class="st14" width="36.72" height="99.66"/>
			<rect x="606.55" y="403.88" class="st14" width="36.72" height="99.66"/>
		</g>
	</g>
</g>
<g id="Shirt-5">
	<g id="Shirt_00000042721230314167428570000001792053716967593346_">
		<path id="Shadow_00000150825169187833044680000017731713676165725841_" class="st15" d="M624.03,468.57v50.71
			c-25.34,3.11-54.09,5.25-85.68,5.25c-25.53,0-54.33-1.39-85.68-5.25c0-16.9,0-33.8,0-50.71H624.03z"/>
		<path id="Shirt_00000101782977039868210740000003990599648885741446_" class="st16" d="M648.51,508.79
			c-32.51,4.11-69.48,6.95-110.16,6.99c-41.38,0.04-78.95-2.83-111.9-6.99c0-37.3,0-74.6,0-111.9h222.06V508.79z"/>
		<g id="Hilites_00000035500118156571180260000011291081863809714838_">
			<path class="st17" d="M538.72,465.11c-39.34,0.3-45.03,7.48-46.57,10.31c-2.91,5.35-2.64,11.38-2.64,11.38
				c0,0,0.23,5.1,2.64,9.37c3.02,5.36,12.07,9.04,48.21,9.13c37.13,0.09,46.47-3.74,49.36-9.13c2.03-3.8,2.64-8.7,2.64-8.7
				c0.7-5.74-0.64-10.43-1.32-12.05C586.66,464.96,560.64,464.94,538.72,465.11z"/>
			<rect x="433.44" y="403.88" class="st17" width="36.72" height="99.66"/>
			<rect x="606.55" y="403.88" class="st17" width="36.72" height="99.66"/>
		</g>
	</g>
</g>
<g id="Shirt-4">
	<g id="Shirt_00000125562185044860914760000011856419892265417885_">
		<path id="Shadow_00000039822523018541372910000009412410887153489821_" class="st18" d="M624.03,468.57v50.71
			c-25.34,3.11-54.09,5.25-85.68,5.25c-25.53,0-54.33-1.39-85.68-5.25c0-16.9,0-33.8,0-50.71H624.03z"/>
		<path id="Shirt_00000083077586091958284940000011883414202856577972_" class="st19" d="M648.51,508.79
			c-32.51,4.11-69.48,6.95-110.16,6.99c-41.38,0.04-78.95-2.83-111.9-6.99c0-37.3,0-74.6,0-111.9h222.06V508.79z"/>
		<g id="Hilites_00000049927626066366671310000017481066472060581291_">
			<path class="st20" d="M538.72,465.11c-39.34,0.3-45.03,7.48-46.57,10.31c-2.91,5.35-2.64,11.38-2.64,11.38
				c0,0,0.23,5.1,2.64,9.37c3.02,5.36,12.07,9.04,48.21,9.13c37.13,0.09,46.47-3.74,49.36-9.13c2.03-3.8,2.64-8.7,2.64-8.7
				c0.7-5.74-0.64-10.43-1.32-12.05C586.66,464.96,560.64,464.94,538.72,465.11z"/>
			<rect x="433.44" y="403.88" class="st20" width="36.72" height="99.66"/>
			<rect x="606.55" y="403.88" class="st20" width="36.72" height="99.66"/>
		</g>
	</g>
</g>
<g id="Shirt-3">
	<g id="Shirt_00000059295587996736072980000010140858337434718103_">
		<path id="Shadow_00000148619857499808584620000015284101362580128934_" class="st21" d="M624.03,468.57v50.71
			c-25.34,3.11-54.09,5.25-85.68,5.25c-25.53,0-54.33-1.39-85.68-5.25c0-16.9,0-33.8,0-50.71H624.03z"/>
		<path id="Shirt_00000142137194973394083150000000487560344003993020_" class="st22" d="M648.51,508.79
			c-32.51,4.11-69.48,6.95-110.16,6.99c-41.38,0.04-78.95-2.83-111.9-6.99c0-37.3,0-74.6,0-111.9h222.06V508.79z"/>
		<g id="Hilites_00000126325356040001151170000007712752005686886822_">
			<path class="st23" d="M538.72,465.11c-39.34,0.3-45.03,7.48-46.57,10.31c-2.91,5.35-2.64,11.38-2.64,11.38
				c0,0,0.23,5.1,2.64,9.37c3.02,5.36,12.07,9.04,48.21,9.13c37.13,0.09,46.47-3.74,49.36-9.13c2.03-3.8,2.64-8.7,2.64-8.7
				c0.7-5.74-0.64-10.43-1.32-12.05C586.66,464.96,560.64,464.94,538.72,465.11z"/>
			<rect x="433.44" y="403.88" class="st23" width="36.72" height="99.66"/>
			<rect x="606.55" y="403.88" class="st23" width="36.72" height="99.66"/>
		</g>
	</g>
</g>
<g id="Shirt-2">
	<g id="Shirt_00000021823694459453959450000008246906349751459713_">
		<path id="Shadow_00000162311824489317585540000006156937616050724514_" class="st24" d="M624.03,468.57v50.71
			c-25.34,3.11-54.09,5.25-85.68,5.25c-25.53,0-54.33-1.39-85.68-5.25c0-16.9,0-33.8,0-50.71H624.03z"/>
		<path id="Shirt_00000145742441855139001990000002153013049455798423_" class="st25" d="M648.51,508.79
			c-32.51,4.11-69.48,6.95-110.16,6.99c-41.38,0.04-78.95-2.83-111.9-6.99c0-37.3,0-74.6,0-111.9h222.06V508.79z"/>
		<g id="Hilites_00000034069035132409358790000006483239142610665103_">
			<path class="st26" d="M538.72,465.11c-39.34,0.3-45.03,7.48-46.57,10.31c-2.91,5.35-2.64,11.38-2.64,11.38
				c0,0,0.23,5.1,2.64,9.37c3.02,5.36,12.07,9.04,48.21,9.13c37.13,0.09,46.47-3.74,49.36-9.13c2.03-3.8,2.64-8.7,2.64-8.7
				c0.7-5.74-0.64-10.43-1.32-12.05C586.66,464.96,560.64,464.94,538.72,465.11z"/>
			<rect x="433.44" y="403.88" class="st26" width="36.72" height="99.66"/>
			<rect x="606.55" y="403.88" class="st26" width="36.72" height="99.66"/>
		</g>
	</g>
</g>
<g id="Shirt-1_00000174572986067703025630000001163928801763650488_">
	<g id="Shirt_00000165194140619240881340000003596801055574620545_">
		<path id="Shadow_00000022537651132690572420000012642278889859911557_" class="st27" d="M624.03,468.57v50.71
			c-25.34,3.11-54.09,5.25-85.68,5.25c-25.53,0-54.33-1.39-85.68-5.25c0-16.9,0-33.8,0-50.71H624.03z"/>
		<path id="Shirt_00000049224029069626854680000001976927624785807011_" class="st28" d="M648.51,508.79
			c-32.51,4.11-69.48,6.95-110.16,6.99c-41.38,0.04-78.95-2.83-111.9-6.99c0-37.3,0-74.6,0-111.9h222.06V508.79z"/>
		<g id="Hilites_00000036224831798913294320000015668905255235042433_">
			<path class="st29" d="M538.72,465.11c-39.34,0.3-45.03,7.48-46.57,10.31c-2.91,5.35-2.64,11.38-2.64,11.38
				c0,0,0.23,5.1,2.64,9.37c3.02,5.36,12.07,9.04,48.21,9.13c37.13,0.09,46.47-3.74,49.36-9.13c2.03-3.8,2.64-8.7,2.64-8.7
				c0.7-5.74-0.64-10.43-1.32-12.05C586.66,464.96,560.64,464.94,538.72,465.11z"/>
			<rect x="433.44" y="403.88" class="st29" width="36.72" height="99.66"/>
			<rect x="606.55" y="403.88" class="st29" width="36.72" height="99.66"/>
		</g>
	</g>
</g>
<g id="Shirt-0">
	<g id="Shirt_00000021090513368332577060000011797725307862139812_">
		<path id="Shadow_00000170968067615508961550000006986998236857929647_" class="st30" d="M624.03,468.57v50.71
			c-25.34,3.11-54.09,5.25-85.68,5.25c-25.53,0-54.33-1.39-85.68-5.25c0-16.9,0-33.8,0-50.71H624.03z"/>
		<path id="Shirt_00000055680815268724180700000013658032681392861835_" class="st31" d="M648.51,508.79
			c-32.51,4.11-69.48,6.95-110.16,6.99c-41.38,0.04-78.95-2.83-111.9-6.99c0-37.3,0-74.6,0-111.9h222.06V508.79z"/>
		<g id="Hilites_00000178189811525699364600000006075418076862323861_">
			<path class="st29" d="M538.72,465.11c-39.34,0.3-45.03,7.48-46.57,10.31c-2.91,5.35-2.64,11.38-2.64,11.38
				c0,0,0.23,5.1,2.64,9.37c3.02,5.36,12.07,9.04,48.21,9.13c37.13,0.09,46.47-3.74,49.36-9.13c2.03-3.8,2.64-8.7,2.64-8.7
				c0.7-5.74-0.64-10.43-1.32-12.05C586.66,464.96,560.64,464.94,538.72,465.11z"/>
			<rect x="433.44" y="403.88" class="st29" width="36.72" height="99.66"/>
			<rect x="606.55" y="403.88" class="st29" width="36.72" height="99.66"/>
		</g>
	</g>
</g>
<g id="Face-0">
	<g id="Face-0-7">
		<path class="st32" d="M700.18,347.58c-4.06,3.57-9.77,6.52-15.65,7.59c-4.51,52.11-48.21,93-101.47,93H482
			c-53.26,0-96.95-40.88-101.47-92.97c-5.93-1.05-11.73-4.02-15.84-7.62c-12.85-11.26-10.42-29.78-9.14-39.62
			c1.05-7.97,3.37-25.77,13.73-28.96c3.43-1.07,7.15-0.33,10.84,1.54v-35.3c0-56.27,45.62-101.89,101.89-101.89h101.06
			c56.27,0,101.89,45.62,101.89,101.89v35.2c3.62-1.78,7.29-2.48,10.67-1.43c10.35,3.18,12.68,20.98,13.71,28.96
			C710.62,317.8,713.03,336.32,700.18,347.58z"/>
		<path id="Hilite_00000050657755079583666580000007498556885227815093_" class="st33" d="M422.32,406.53
			c-18.1-18.66-21.11-39.96-26.23-76.22c-7.25-51.33-14.9-105.51,17.49-135.5c11.89-11.01,44.23-14.83,108.43-22.02
			c76.14-8.53,91.14-4.28,103.18,3.39c23.44,14.93,31.02,39.85,38.48,64.36c16.14,53.08,2.65,98.4-5.25,123.65
			c-9.1,29.1-13.94,44.6-29.73,57.59c-24.6,20.24-56.04,18.15-99.69,15.24C480.51,433.79,446.59,431.54,422.32,406.53z"/>
	</g>
	<g id="Face-0-6">
		<path class="st34" d="M700.18,347.58c-4.06,3.57-9.77,6.52-15.65,7.59c-4.51,52.11-48.21,93-101.47,93H482
			c-53.26,0-96.95-40.88-101.47-92.97c-5.93-1.05-11.73-4.02-15.84-7.62c-12.85-11.26-10.42-29.78-9.14-39.62
			c1.05-7.97,3.37-25.77,13.73-28.96c3.43-1.07,7.15-0.33,10.84,1.54v-35.3c0-56.27,45.62-101.89,101.89-101.89h101.06
			c56.27,0,101.89,45.62,101.89,101.89v35.2c3.62-1.78,7.29-2.48,10.67-1.43c10.35,3.18,12.68,20.98,13.71,28.96
			C710.62,317.8,713.03,336.32,700.18,347.58z"/>
		<path id="Hilite_00000178920777857584055790000009597789869172247736_" class="st35" d="M422.32,406.53
			c-18.1-18.66-21.11-39.96-26.23-76.22c-7.25-51.33-14.9-105.51,17.49-135.5c11.89-11.01,44.23-14.83,108.43-22.02
			c76.14-8.53,91.14-4.28,103.18,3.39c23.44,14.93,31.02,39.85,38.48,64.36c16.14,53.08,2.65,98.4-5.25,123.65
			c-9.1,29.1-13.94,44.6-29.73,57.59c-24.6,20.24-56.04,18.15-99.69,15.24C480.51,433.79,446.59,431.54,422.32,406.53z"/>
	</g>
	<g id="Face-0-5">
		<path id="Face_00000170264710392979270890000014599502201883099027_" class="st36" d="M700.18,347.58
			c-4.06,3.57-9.77,6.52-15.65,7.59c-4.51,52.11-48.21,93-101.47,93H482c-53.26,0-96.95-40.88-101.47-92.97
			c-5.93-1.05-11.73-4.02-15.84-7.62c-12.85-11.26-10.42-29.78-9.14-39.62c1.05-7.97,3.37-25.77,13.73-28.96
			c3.43-1.07,7.15-0.33,10.84,1.54v-35.3c0-56.27,45.62-101.89,101.89-101.89h101.06c56.27,0,101.89,45.62,101.89,101.89v35.2
			c3.62-1.78,7.29-2.48,10.67-1.43c10.35,3.18,12.68,20.98,13.71,28.96C710.62,317.8,713.03,336.32,700.18,347.58z"/>
		<path id="Hilite_00000021819435768437098770000017431045230625294517_" class="st37" d="M422.32,406.53
			c-18.1-18.66-21.11-39.96-26.23-76.22c-7.25-51.33-14.9-105.51,17.49-135.5c11.89-11.01,44.23-14.83,108.43-22.02
			c76.14-8.53,91.14-4.28,103.18,3.39c23.44,14.93,31.02,39.85,38.48,64.36c16.14,53.08,2.65,98.4-5.25,123.65
			c-9.1,29.1-13.94,44.6-29.73,57.59c-24.6,20.24-56.04,18.15-99.69,15.24C480.51,433.79,446.59,431.54,422.32,406.53z"/>
	</g>
	<g id="Face-0-4">
		<path id="Face_00000075884978911955008810000015132040257344796862_" class="st38" d="M700.18,347.58
			c-4.06,3.57-9.77,6.52-15.65,7.59c-4.51,52.11-48.21,93-101.47,93H482c-53.26,0-96.95-40.88-101.47-92.97
			c-5.93-1.05-11.73-4.02-15.84-7.62c-12.85-11.26-10.42-29.78-9.14-39.62c1.05-7.97,3.37-25.77,13.73-28.96
			c3.43-1.07,7.15-0.33,10.84,1.54v-35.3c0-56.27,45.62-101.89,101.89-101.89h101.06c56.27,0,101.89,45.62,101.89,101.89v35.2
			c3.62-1.78,7.29-2.48,10.67-1.43c10.35,3.18,12.68,20.98,13.71,28.96C710.62,317.8,713.03,336.32,700.18,347.58z"/>
		<path id="Hilite_00000101795160630835162620000015057407207632474785_" class="st39" d="M422.32,406.53
			c-18.1-18.66-21.11-39.96-26.23-76.22c-7.25-51.33-14.9-105.51,17.49-135.5c11.89-11.01,44.23-14.83,108.43-22.02
			c76.14-8.53,91.14-4.28,103.18,3.39c23.44,14.93,31.02,39.85,38.48,64.36c16.14,53.08,2.65,98.4-5.25,123.65
			c-9.1,29.1-13.94,44.6-29.73,57.59c-24.6,20.24-56.04,18.15-99.69,15.24C480.51,433.79,446.59,431.54,422.32,406.53z"/>
	</g>
	<g id="Face-0-3">
		<path id="Face_00000122694069130061906290000016945592944963332785_" class="st40" d="M700.18,347.58
			c-4.06,3.57-9.77,6.52-15.65,7.59c-4.51,52.11-48.21,93-101.47,93H482c-53.26,0-96.95-40.88-101.47-92.97
			c-5.93-1.05-11.73-4.02-15.84-7.62c-12.85-11.26-10.42-29.78-9.14-39.62c1.05-7.97,3.37-25.77,13.73-28.96
			c3.43-1.07,7.15-0.33,10.84,1.54v-35.3c0-56.27,45.62-101.89,101.89-101.89h101.06c56.27,0,101.89,45.62,101.89,101.89v35.2
			c3.62-1.78,7.29-2.48,10.67-1.43c10.35,3.18,12.68,20.98,13.71,28.96C710.62,317.8,713.03,336.32,700.18,347.58z"/>
		<path id="Hilite_00000038387117280184119430000004836410390540982669_" class="st41" d="M422.32,406.53
			c-18.1-18.66-21.11-39.96-26.23-76.22c-7.25-51.33-14.9-105.51,17.49-135.5c11.89-11.01,44.23-14.83,108.43-22.02
			c76.14-8.53,91.14-4.28,103.18,3.39c23.44,14.93,31.02,39.85,38.48,64.36c16.14,53.08,2.65,98.4-5.25,123.65
			c-9.1,29.1-13.94,44.6-29.73,57.59c-24.6,20.24-56.04,18.15-99.69,15.24C480.51,433.79,446.59,431.54,422.32,406.53z"/>
	</g>
	<g id="Face-0-2">
		<path id="Face_00000062875341777295008240000006771079431438641314_" class="st42" d="M700.18,347.58
			c-4.06,3.57-9.77,6.52-15.65,7.59c-4.51,52.11-48.21,93-101.47,93H482c-53.26,0-96.95-40.88-101.47-92.97
			c-5.93-1.05-11.73-4.02-15.84-7.62c-12.85-11.26-10.42-29.78-9.14-39.62c1.05-7.97,3.37-25.77,13.73-28.96
			c3.43-1.07,7.15-0.33,10.84,1.54v-35.3c0-56.27,45.62-101.89,101.89-101.89h101.06c56.27,0,101.89,45.62,101.89,101.89v35.2
			c3.62-1.78,7.29-2.48,10.67-1.43c10.35,3.18,12.68,20.98,13.71,28.96C710.62,317.8,713.03,336.32,700.18,347.58z"/>
		<path id="Hilite_00000147932608547382045850000015473451201322597553_" class="st43" d="M422.32,406.53
			c-18.1-18.66-21.11-39.96-26.23-76.22c-7.25-51.33-14.9-105.51,17.49-135.5c11.89-11.01,44.23-14.83,108.43-22.02
			c76.14-8.53,91.14-4.28,103.18,3.39c23.44,14.93,31.02,39.85,38.48,64.36c16.14,53.08,2.65,98.4-5.25,123.65
			c-9.1,29.1-13.94,44.6-29.73,57.59c-24.6,20.24-56.04,18.15-99.69,15.24C480.51,433.79,446.59,431.54,422.32,406.53z"/>
	</g>
	<g id="Face-0-1">
		<path id="Face_00000057122486670213028050000012150335780554349235_" class="st44" d="M700.18,347.58
			c-4.06,3.57-9.77,6.52-15.65,7.59c-4.51,52.11-48.21,93-101.47,93H482c-53.26,0-96.95-40.88-101.47-92.97
			c-5.93-1.05-11.73-4.02-15.84-7.62c-12.85-11.26-10.42-29.78-9.14-39.62c1.05-7.97,3.37-25.77,13.73-28.96
			c3.43-1.07,7.15-0.33,10.84,1.54v-35.3c0-56.27,45.62-101.89,101.89-101.89h101.06c56.27,0,101.89,45.62,101.89,101.89v35.2
			c3.62-1.78,7.29-2.48,10.67-1.43c10.35,3.18,12.68,20.98,13.71,28.96C710.62,317.8,713.03,336.32,700.18,347.58z"/>
		<path id="Hilite_00000053524465773921001720000018361197720602478221_" class="st45" d="M422.32,406.53
			c-18.1-18.66-21.11-39.96-26.23-76.22c-7.25-51.33-14.9-105.51,17.49-135.5c11.89-11.01,44.23-14.83,108.43-22.02
			c76.14-8.53,91.14-4.28,103.18,3.39c23.44,14.93,31.02,39.85,38.48,64.36c16.14,53.08,2.65,98.4-5.25,123.65
			c-9.1,29.1-13.94,44.6-29.73,57.59c-24.6,20.24-56.04,18.15-99.69,15.24C480.51,433.79,446.59,431.54,422.32,406.53z"/>
	</g>
	<g id="Face-0-0">
		<path id="Face" class="st46" d="M700.18,347.58c-4.06,3.57-9.77,6.52-15.65,7.59c-4.51,52.11-48.21,93-101.47,93H482
			c-53.26,0-96.95-40.88-101.47-92.97c-5.93-1.05-11.73-4.02-15.84-7.62c-12.85-11.26-10.42-29.78-9.14-39.62
			c1.05-7.97,3.37-25.77,13.73-28.96c3.43-1.07,7.15-0.33,10.84,1.54v-35.3c0-56.27,45.62-101.89,101.89-101.89h101.06
			c56.27,0,101.89,45.62,101.89,101.89v35.2c3.62-1.78,7.29-2.48,10.67-1.43c10.35,3.18,12.68,20.98,13.71,28.96
			C710.62,317.8,713.03,336.32,700.18,347.58z"/>
		<path id="Hilite" class="st47" d="M422.32,406.53c-18.1-18.66-21.11-39.96-26.23-76.22c-7.25-51.33-14.9-105.51,17.49-135.5
			c11.89-11.01,44.23-14.83,108.43-22.02c76.14-8.53,91.14-4.28,103.18,3.39c23.44,14.93,31.02,39.85,38.48,64.36
			c16.14,53.08,2.65,98.4-5.25,123.65c-9.1,29.1-13.94,44.6-29.73,57.59c-24.6,20.24-56.04,18.15-99.69,15.24
			C480.51,433.79,446.59,431.54,422.32,406.53z"/>
	</g>
</g>
<g id="Face-1" class="st0">
	<g class="st48">
		<path class="st49" d="M253.39,211.34c-0.6-4.47-1.92-14.46-7.84-16.24c-2.04-0.62-4.26-0.15-6.45,0.99
			c-0.45-5.01-1.57-11.69-4.31-19.1C223.73,147.12,191.77,119,152.3,119c-45.23,0-82.4,33.85-86.68,77.14
			c-2.22-1.18-4.49-1.68-6.56-1.05c-5.91,1.79-7.24,11.77-7.84,16.24c-0.74,5.53-2.12,15.91,5.23,22.23
			c3.86,3.32,10.34,5.69,15.46,3.87C85.05,268.31,116.09,290,152.3,290c36.21,0,67.25-21.69,80.39-52.56
			c5.13,1.82,11.61-0.55,15.47-3.87C255.51,227.25,254.13,216.87,253.39,211.34z"/>
		<path class="st50" d="M102.6,264.78c-3.47-2.27-24.78-16.67-28.16-42.46c-2.96-22.59,9.79-39,16.51-47.66
			c5.62-7.23,16.16-20.81,36.9-27.73c25.65-8.56,48.19-0.69,52.44,0.87c21.92,8.07,32.21,23.36,36.9,30.33
			c4.79,7.12,14.3,21.26,12.62,40.73c-2.13,24.63-20.61,39.61-24.28,42.46c-21.24,16.52-46.35,15.88-57.29,15.6
			C138.21,276.65,120.06,276.19,102.6,264.78z"/>
	</g>
</g>
<g id="Bangs-0">
	<g id="Bangs-0-Gray_00000103223101295943523830000000759376051515788444_">
		<path class="st3" d="M389.98,256.17l41,28.81l7.43-39.17l35.33,39.17l12.23-44.48l31.22,44.48l15.49-46.56l13.95,46.56
			l32.28-46.68l12.06,46.68l34.51-44.73l8.91,44.73l38.58-39.37l3.32,39.37h11.58v-2.63c0-86.91-63.91-157.36-142.74-157.36h-25.75
			c-78.83,0-142.74,70.45-142.74,157.36v2.63h11.8L389.98,256.17z"/>
		<path class="st3" d="M544.1,300.93l-11.77-39.3l-12.88,38.74l-30.67-43.69l-11.68,42.47l-34.44-38.19l-6.83,35.98l-39.55-27.79
			l-1.23,22.83h-25.42v-9.62c0-90.62,67.17-164.35,149.73-164.35h25.75c82.56,0,149.73,73.73,149.73,164.35v9.62h-25l-2.58-30.57
			l-37.16,37.93l-8.5-42.64l-33.86,43.88l-11.81-45.71L544.1,300.93z M387.63,245.97l38.5,27.05l8.04-42.36l36.21,40.15l12.78-46.48
			l31.78,45.26l18.09-54.39l16.12,53.82l32.7-47.29l12.3,47.65l35.17-45.58l9.33,46.82l35.22-35.94
			c-18.04-59.62-68.94-102.7-128.76-102.7h-25.75C455.83,131.99,402.35,180.58,387.63,245.97z"/>
	</g>
	<g id="Bangs-0-Blond_00000001648607302146705090000003355492020471179672_">
		<path class="st4" d="M389.98,256.17l41,28.81l7.43-39.17l35.33,39.17l12.23-44.48l31.22,44.48l15.49-46.56l13.95,46.56
			l32.28-46.68l12.06,46.68l34.51-44.73l8.91,44.73l38.58-39.37l3.32,39.37h11.58v-2.63c0-86.91-63.91-157.36-142.74-157.36h-25.75
			c-78.83,0-142.74,70.45-142.74,157.36v2.63h11.8L389.98,256.17z"/>
		<path class="st4" d="M544.1,300.93l-11.77-39.3l-12.88,38.74l-30.67-43.69l-11.68,42.47l-34.44-38.19l-6.83,35.98l-39.55-27.79
			l-1.23,22.83h-25.42v-9.62c0-90.62,67.17-164.35,149.73-164.35h25.75c82.56,0,149.73,73.73,149.73,164.35v9.62h-25l-2.58-30.57
			l-37.16,37.93l-8.5-42.64l-33.86,43.88l-11.81-45.71L544.1,300.93z M387.63,245.97l38.5,27.05l8.04-42.36l36.21,40.15l12.78-46.48
			l31.78,45.26l18.09-54.39l16.12,53.82l32.7-47.29l12.3,47.65l35.17-45.58l9.33,46.82l35.22-35.94
			c-18.04-59.62-68.94-102.7-128.76-102.7h-25.75C455.83,131.99,402.35,180.58,387.63,245.97z"/>
	</g>
	<g id="Bangs-0-Red_00000066493058543144799230000009376473425984900006_">
		<path class="st5" d="M389.98,256.17l41,28.81l7.43-39.17l35.33,39.17l12.23-44.48l31.22,44.48l15.49-46.56l13.95,46.56
			l32.28-46.68l12.06,46.68l34.51-44.73l8.91,44.73l38.58-39.37l3.32,39.37h11.58v-2.63c0-86.91-63.91-157.36-142.74-157.36h-25.75
			c-78.83,0-142.74,70.45-142.74,157.36v2.63h11.8L389.98,256.17z"/>
		<path class="st5" d="M544.1,300.93l-11.77-39.3l-12.88,38.74l-30.67-43.69l-11.68,42.47l-34.44-38.19l-6.83,35.98l-39.55-27.79
			l-1.23,22.83h-25.42v-9.62c0-90.62,67.17-164.35,149.73-164.35h25.75c82.56,0,149.73,73.73,149.73,164.35v9.62h-25l-2.58-30.57
			l-37.16,37.93l-8.5-42.64l-33.86,43.88l-11.81-45.71L544.1,300.93z M387.63,245.97l38.5,27.05l8.04-42.36l36.21,40.15l12.78-46.48
			l31.78,45.26l18.09-54.39l16.12,53.82l32.7-47.29l12.3,47.65l35.17-45.58l9.33,46.82l35.22-35.94
			c-18.04-59.62-68.94-102.7-128.76-102.7h-25.75C455.83,131.99,402.35,180.58,387.63,245.97z"/>
	</g>
	<g id="Bangs-0-Brown_00000011018641514154772060000012399110941057783444_">
		<path class="st6" d="M389.98,256.17l41,28.81l7.43-39.17l35.33,39.17l12.23-44.48l31.22,44.48l15.49-46.56l13.95,46.56
			l32.28-46.68l12.06,46.68l34.51-44.73l8.91,44.73l38.58-39.37l3.32,39.37h11.58v-2.63c0-86.91-63.91-157.36-142.74-157.36h-25.75
			c-78.83,0-142.74,70.45-142.74,157.36v2.63h11.8L389.98,256.17z"/>
		<path class="st6" d="M544.1,300.93l-11.77-39.3l-12.88,38.74l-30.67-43.69l-11.68,42.47l-34.44-38.19l-6.83,35.98l-39.55-27.79
			l-1.23,22.83h-25.42v-9.62c0-90.62,67.17-164.35,149.73-164.35h25.75c82.56,0,149.73,73.73,149.73,164.35v9.62h-25l-2.58-30.57
			l-37.16,37.93l-8.5-42.64l-33.86,43.88l-11.81-45.71L544.1,300.93z M387.63,245.97l38.5,27.05l8.04-42.36l36.21,40.15l12.78-46.48
			l31.78,45.26l18.09-54.39l16.12,53.82l32.7-47.29l12.3,47.65l35.17-45.58l9.33,46.82l35.22-35.94
			c-18.04-59.62-68.94-102.7-128.76-102.7h-25.75C455.83,131.99,402.35,180.58,387.63,245.97z"/>
	</g>
	<g id="Bangs-0-Black_00000181780910238354698930000010595688558196823426_">
		<path class="st7" d="M389.98,256.17l41,28.81l7.43-39.17l35.33,39.17l12.23-44.48l31.22,44.48l15.49-46.56l13.95,46.56
			l32.28-46.68l12.06,46.68l34.51-44.73l8.91,44.73l38.58-39.37l3.32,39.37h11.58v-2.63c0-86.91-63.91-157.36-142.74-157.36h-25.75
			c-78.83,0-142.74,70.45-142.74,157.36v2.63h11.8L389.98,256.17z"/>
		<path class="st7" d="M544.1,300.93l-11.77-39.3l-12.88,38.74l-30.67-43.69l-11.68,42.47l-34.44-38.19l-6.83,35.98l-39.55-27.79
			l-1.23,22.83h-25.42v-9.62c0-90.62,67.17-164.35,149.73-164.35h25.75c82.56,0,149.73,73.73,149.73,164.35v9.62h-25l-2.58-30.57
			l-37.16,37.93l-8.5-42.64l-33.86,43.88l-11.81-45.71L544.1,300.93z M387.63,245.97l38.5,27.05l8.04-42.36l36.21,40.15l12.78-46.48
			l31.78,45.26l18.09-54.39l16.12,53.82l32.7-47.29l12.3,47.65l35.17-45.58l9.33,46.82l35.22-35.94
			c-18.04-59.62-68.94-102.7-128.76-102.7h-25.75C455.83,131.99,402.35,180.58,387.63,245.97z"/>
	</g>
</g>
<g id="Expressions">
	<g id="eye-left">
		<circle cx="452.88" cy="350.92" r="19.94"/>
		<circle class="st51" cx="441.86" cy="352.49" r="5.77"/>
		<circle class="st51" cx="449.2" cy="343.05" r="3.67"/>
	</g>
	<g id="eye-right">
		<circle cx="625.06" cy="350.72" r="19.94"/>
		<circle class="st51" cx="636.08" cy="352.29" r="5.77"/>
		<circle class="st51" cx="628.73" cy="342.85" r="3.67"/>
	</g>
	<line id="mouth-neutral" class="st52" x1="513.33" y1="383.86" x2="563.33" y2="383.86"/>
	<path id="mouth-smile-1" class="st52" d="M513,380c5.72,1.88,14.36,4,25,4c6.02,0,14.89-0.68,25-4"/>
	<path id="mouth-smile-2" class="st52" d="M512.61,371.75c0.99,1.28,10,12.44,25.39,12.25c14.91-0.19,23.54-10.88,24.61-12.25"/>
	<path id="mouth-frown-1" class="st52" d="M513,388.07c5.72-1.88,14.36-4,25-4c6.02,0,14.89,0.68,25,4"/>
	<path id="mouth-frown-2" class="st52" d="M513.61,394.08c0.99-1.28,10-12.44,25.39-12.25c14.91,0.19,23.54,10.88,24.61,12.25"/>
</g>
<g id="Scratch" class="st0">
	<path class="st48" d="M749.73,1420.76c-17.16-2.19-30.39,10.56-28.57,27.64c1.8-3.15,3.48-6.14,5.41-8.87
		C732.31,1431.04,740.38,1425.4,749.73,1420.76L749.73,1420.76z"/>
	<path class="st48" d="M755.11,1455.88c10.59,13.68,28.95,14.02,39.75,0.65c-3.5,0.95-6.8,1.88-10.1,2.45
		C774.69,1460.93,764.99,1459.21,755.11,1455.88L755.11,1455.88z"/>
	<path class="st48" d="M759.33,1420.36c2.19,17.16-10.56,30.39-27.64,28.57c3.15-1.8,6.14-3.48,8.87-5.41
		C749.05,1437.78,754.69,1429.71,759.33,1420.36L759.33,1420.36z"/>
	<g class="st48">
		<circle cx="721" cy="1499" r="19"/>
		<circle class="st51" cx="731.5" cy="1500.5" r="5.5"/>
		<circle class="st51" cx="724.5" cy="1491.5" r="3.5"/>
	</g>
	<path class="st53" d="M646,1471c0.62,0.58,8.41,7.69,20.93,6.95c10.25-0.61,16.12-6.03,17.07-6.95"/>
	<path class="st48" d="M646,1553c0.68-1.03,9.3-13.59,23.13-12.28c11.33,1.07,17.82,10.67,18.87,12.28"/>
	<circle class="st48" cx="666.5" cy="1415.5" r="16.5"/>
	<g class="st48">
		<g>
			<circle cx="-144" cy="1025" r="19"/>
			<circle class="st51" cx="-154.5" cy="1026.5" r="5.5"/>
			<circle class="st51" cx="-147.5" cy="1017.5" r="3.5"/>
		</g>
		<g>
			<circle cx="-42" cy="1025" r="19"/>
			<circle class="st51" cx="-31.5" cy="1026.5" r="5.5"/>
			<circle class="st51" cx="-38.5" cy="1017.5" r="3.5"/>
		</g>
	</g>
	<g class="st48">
		<g>
			<circle cx="375" cy="1536" r="19"/>
			<circle class="st51" cx="364.5" cy="1537.5" r="5.5"/>
			<circle class="st51" cx="371.5" cy="1528.5" r="3.5"/>
		</g>
		<g>
			<circle cx="477" cy="1536" r="19"/>
			<circle class="st51" cx="487.5" cy="1537.5" r="5.5"/>
			<circle class="st51" cx="480.5" cy="1528.5" r="3.5"/>
		</g>
	</g>
	<line class="st54" x1="406.77" y1="1577" x2="446.92" y2="1577"/>
	<g class="st48">
		<path class="st44" d="M-590,828c-0.68-5.23-2.21-16.91-9-19c-2.21-0.68-4.62-0.23-7,0.95v-23.1c0-36.92-29.93-66.85-66.85-66.85
			h-66.31c-36.92,0-66.85,29.93-66.85,66.85v23.17c-2.42-1.23-4.87-1.71-7.12-1.01c-6.79,2.09-8.32,13.77-9,19
			c-0.84,6.46-2.43,18.61,6,26c2.69,2.36,6.5,4.31,10.39,5c2.96,34.18,31.63,61,66.58,61h66.31c34.95,0,63.62-26.83,66.58-61.02
			c3.85-0.71,7.6-2.65,10.27-4.98C-587.57,846.61-589.16,834.46-590,828z"/>
		<path class="st55" d="M-768,877c-10.35-11.02-12.07-23.59-15-45c-4.14-30.3-8.52-62.29,10-80c6.8-6.5,25.29-8.76,62-13
			c43.54-5.03,52.11-2.53,59,2c13.4,8.81,17.74,23.53,22,38c9.23,31.34,1.51,58.09-3,73c-5.2,17.18-7.97,26.33-17,34
			c-14.07,11.95-32.05,10.71-57,9C-734.73,893.1-754.12,891.77-768,877z"/>
	</g>
	<g class="st48">
		<path class="st42" d="M-274.8,748c-0.78-5.23-2.51-16.91-10.24-19c-2.22-0.6-4.61-0.32-7.01,0.57
			c-2.83-52.23-39.87-93.57-85.16-93.57c-45.59,0-82.83,41.9-85.22,94.63c-3.16-1.67-6.41-2.43-9.36-1.63
			c-7.73,2.09-9.46,13.77-10.24,19c-0.96,6.46-2.77,18.61,6.83,26c5.16,3.98,13.9,6.78,20.68,4.36
			c13.61,34.05,43.11,57.64,77.32,57.64c34.01,0,63.37-23.31,77.08-57.05c6.38,1.23,13.87-1.39,18.5-4.95
			C-272.03,766.61-273.83,754.46-274.8,748z"/>
		<path class="st56" d="M-389.72,668c-15.08,3.68-24.3,12.04-27.31,15c-12.5,12.31-14.11,26.4-15.93,45c-2,20.41-3.42,34.87,5.69,51
			c3.4,6.01,16.16,28.61,42.1,32c22.16,2.89,39.42-10.12,43.24-13c20.59-15.52,23.08-38.18,25.03-56c2.44-22.22,4.61-42.03-11.38-58
			C-342.78,669.51-367.77,662.65-389.72,668z"/>
	</g>
	<g class="st48">
		<path class="st46" d="M-668.77,421c-0.76-5.23-2.45-16.91-9.98-19c-3.69-1.03-7.87,0.51-11.71,3.24v-23.29
			c0-38.64-34.73-69.96-77.57-69.96h-11.18c-42.84,0-77.57,31.32-77.57,69.96v23.29c-3.84-2.73-8.02-4.27-11.71-3.24
			c-7.53,2.09-9.22,13.77-9.98,19c-0.94,6.46-2.7,18.61,6.65,26c3.99,3.16,10.18,5.58,15.87,5.23c5.47,33.8,37.74,59.77,76.74,59.77
			h11.18c39,0,71.27-25.96,76.74-59.77c5.68,0.34,11.87-2.08,15.87-5.23C-666.08,439.61-667.84,427.46-668.77,421z"/>
		<path class="st57" d="M-802.46,336c-18.47,7.47-26.99,21.23-31.05,28c-16.25,27.14-8.04,55.65-3.33,72
			c5.23,18.13,9.09,31.55,23.29,41c22.68,15.09,52.15,7.03,58.77,5c28.83-8.84,41.18-31.12,43.25-35c16.5-31.06-0.3-62.18-7.76-76
			c-6.97-12.91-14.72-27.27-33.27-35C-776.64,325.96-799.95,334.98-802.46,336z"/>
	</g>
	<g class="st48">
		<path class="st36" d="M-241,119c-0.68-5.23-2.21-16.91-9-19c-2.21-0.68-4.62-0.23-7,0.95V89.48C-257,56.63-283.63,30-316.48,30
			h-81.04C-430.37,30-457,56.63-457,89.48v11.53c-2.42-1.23-4.87-1.71-7.12-1.01c-6.79,2.09-8.32,13.77-9,19
			c-0.84,6.46-2.43,18.61,6,26c4.42,3.87,11.81,6.64,17.69,4.55c10.18,18.16,29.61,30.45,51.91,30.45h81.04
			c22.29,0,41.71-12.27,51.89-30.42c5.86,2.02,13.2-0.74,17.59-4.58C-238.57,137.61-240.16,125.46-241,119z"/>
		<path class="st58" d="M-421,144c-11.21-13.65-11.81-29.86-12-35c-0.12-3.37-0.76-32.36,20-49c9.71-7.79,21.94-8.96,46-11
			c36.82-3.12,55.23-4.68,69,6c19.26,14.94,20.62,41.56,21,49c0.46,8.97,1.45,28.32-11,43c-14.3,16.86-37.3,16.93-63,17
			C-376.75,164.07-404.44,164.15-421,144z"/>
	</g>
	<g class="st48">
		<path class="st38" d="M-197,495c-0.68-5.23-2.21-16.91-9-19c-2.47-0.76-5.17-0.11-7.82,1.38C-220.11,440.5-262.12,412-313,412
			c-50.91,0-92.94,28.54-99.2,65.45c-2.68-1.54-5.43-2.22-7.93-1.45c-6.79,2.09-8.32,13.77-9,19c-0.84,6.46-2.43,18.61,6,26
			c4.75,4.16,12.95,7.06,19,4c1.18-0.6,2.22-1.4,3.12-2.35c16.91,23.43,49.98,39.35,88,39.35c37.99,0,71.02-15.88,87.95-39.28
			c0.88,0.92,1.9,1.7,3.05,2.28c6.05,3.06,14.25,0.16,19-4C-194.57,513.61-196.16,501.46-197,495z"/>
		<path class="st59" d="M-341,435c-10.08,2.77-25.78,7.08-35,22c-10.66,17.24-5.07,36.35-4,40c6.63,22.65,26.23,33.32,33,37
			c25.99,14.14,60.33,12.96,84-4c6.14-4.4,18.63-13.35,22-29c5.25-24.41-16.01-45.12-20-49C-291.59,422.21-337.2,433.96-341,435z"/>
	</g>
	<g class="st48">
		<path class="st34" d="M-264,284c-0.68-5.23-2.21-16.91-9-19c-2.47-0.76-5.17-0.11-7.82,1.38C-287.11,229.5-329.12,201-380,201
			c-50.91,0-92.94,28.54-99.2,65.45c-2.68-1.54-5.43-2.22-7.93-1.45c-6.79,2.09-8.32,13.77-9,19c-0.84,6.46-2.43,18.61,6,26
			c4.75,4.16,12.95,7.06,19,4c1.18-0.6,2.22-1.4,3.12-2.35c16.91,23.43,49.98,39.35,88,39.35c37.99,0,71.02-15.88,87.95-39.28
			c0.88,0.92,1.9,1.7,3.05,2.28c6.05,3.06,14.25,0.16,19-4C-261.57,302.61-263.16,290.46-264,284z"/>
		<path class="st60" d="M-408,224c-10.08,2.77-25.78,7.08-35,22c-10.66,17.24-5.07,36.35-4,40c6.63,22.65,26.23,33.32,33,37
			c25.99,14.14,60.33,12.96,84-4c6.14-4.4,18.63-13.35,22-29c5.25-24.41-16.01-45.12-20-49C-358.59,211.21-404.2,222.96-408,224z"/>
	</g>
	<g class="st48">
		<g>
			<circle cx="121" cy="1026" r="19"/>
			<circle class="st51" cx="110.5" cy="1027.5" r="5.5"/>
			<circle class="st51" cx="117.5" cy="1018.5" r="3.5"/>
		</g>
		<g>
			<circle cx="223" cy="1026" r="19"/>
			<circle class="st51" cx="233.5" cy="1027.5" r="5.5"/>
			<circle class="st51" cx="226.5" cy="1018.5" r="3.5"/>
		</g>
	</g>
	<g class="st48">
		<g>
			<circle cx="267" cy="1415" r="19"/>
			<circle class="st51" cx="256.5" cy="1416.5" r="5.5"/>
			<circle class="st51" cx="263.5" cy="1407.5" r="3.5"/>
		</g>
		<g>
			<circle cx="369" cy="1415" r="19"/>
			<circle class="st51" cx="379.5" cy="1416.5" r="5.5"/>
			<circle class="st51" cx="372.5" cy="1407.5" r="3.5"/>
		</g>
	</g>
	<g class="st48">
		<g>
			<circle cx="657" cy="1026" r="19"/>
			<circle class="st51" cx="646.5" cy="1027.5" r="5.5"/>
			<circle class="st51" cx="653.5" cy="1018.5" r="3.5"/>
		</g>
		<g>
			<circle cx="759" cy="1026" r="19"/>
			<circle class="st51" cx="769.5" cy="1027.5" r="5.5"/>
			<circle class="st51" cx="762.5" cy="1018.5" r="3.5"/>
		</g>
	</g>
	<g class="st48">
		<g>
			<circle cx="-146" cy="1252" r="19"/>
			<circle class="st51" cx="-156.5" cy="1253.5" r="5.5"/>
			<circle class="st51" cx="-149.5" cy="1244.5" r="3.5"/>
		</g>
		<g>
			<circle cx="-44" cy="1252" r="19"/>
			<circle class="st51" cx="-33.5" cy="1253.5" r="5.5"/>
			<circle class="st51" cx="-40.5" cy="1244.5" r="3.5"/>
		</g>
	</g>
	<g class="st48">
		<g>
			<circle cx="130" cy="1259" r="19"/>
			<circle class="st51" cx="119.5" cy="1260.5" r="5.5"/>
			<circle class="st51" cx="126.5" cy="1251.5" r="3.5"/>
		</g>
		<g>
			<circle cx="232" cy="1259" r="19"/>
			<circle class="st51" cx="242.5" cy="1260.5" r="5.5"/>
			<circle class="st51" cx="235.5" cy="1251.5" r="3.5"/>
		</g>
	</g>
	<g class="st48">
		<g>
			<circle cx="681" cy="1261" r="19"/>
			<circle class="st51" cx="670.5" cy="1262.5" r="5.5"/>
			<circle class="st51" cx="677.5" cy="1253.5" r="3.5"/>
		</g>
		<g>
			<circle cx="783" cy="1261" r="19"/>
			<circle class="st51" cx="793.5" cy="1262.5" r="5.5"/>
			<circle class="st51" cx="786.5" cy="1253.5" r="3.5"/>
		</g>
	</g>
	<g class="st48">
		<g>
			<circle cx="396" cy="1253" r="19"/>
			<circle class="st51" cx="385.5" cy="1254.5" r="5.5"/>
			<circle class="st51" cx="392.5" cy="1245.5" r="3.5"/>
		</g>
		<g>
			<circle cx="498" cy="1253" r="19"/>
			<circle class="st51" cx="508.5" cy="1254.5" r="5.5"/>
			<circle class="st51" cx="501.5" cy="1245.5" r="3.5"/>
		</g>
	</g>
	<g class="st48">
		<path d="M-73.08,1046.5h-40.15c-1.38,0-2.5-1.12-2.5-2.5s1.12-2.5,2.5-2.5h40.15c1.38,0,2.5,1.12,2.5,2.5
			S-71.7,1046.5-73.08,1046.5z"/>
	</g>
	<g class="st48">
		<path d="M174.83,1051c-0.12,0-0.23,0-0.35,0c-7.13-0.05-14.32-1.69-20.78-4.74c-1.25-0.59-1.78-2.08-1.19-3.33
			c0.59-1.25,2.08-1.78,3.33-1.19c5.81,2.74,12.27,4.21,18.68,4.26c6.65,0.08,13.32-1.42,19.33-4.26c1.25-0.59,2.74-0.05,3.33,1.19
			c0.59,1.25,0.05,2.74-1.19,3.33C189.4,1049.36,182.1,1051,174.83,1051z"/>
	</g>
	<path class="st48" d="M482.39,1468.55c0.68,1.03,9.3,13.59,23.13,12.28c11.33-1.07,17.82-10.67,18.87-12.28"/>
	<path class="st48" d="M419,1030.63c0.68,1.03,9.3,13.59,23.13,12.28c11.33-1.07,17.82-10.67,18.87-12.28"/>
	<path class="st48" d="M369.05,1024.12c8.54-15.04,26.67-17.99,39.25-6.29c-3.6-0.45-7-0.9-10.34-0.99
		C387.72,1016.33,378.37,1019.41,369.05,1024.12L369.05,1024.12z"/>
	<path class="st48" d="M507.23,1021.31c-9.16-14.67-27.4-16.85-39.48-4.63c3.58-0.6,6.95-1.19,10.29-1.42
		C488.25,1014.32,497.72,1017,507.23,1021.31L507.23,1021.31z"/>
	<path class="st48" d="M817,1395.62c0.88-1.25,11.96-16.46,29.74-14.88c14.57,1.3,22.91,12.93,24.26,14.88"/>
	<path class="st48" d="M636.96,1388.16c-17.16,2.19-30.39-10.56-28.57-27.64c1.8,3.15,3.48,6.14,5.41,8.87
		C619.54,1377.88,627.61,1383.53,636.96,1388.16z"/>
	<path class="st48" d="M460.82,1387.91c17.16,2.19,30.39-10.56,28.57-27.64c-1.8,3.15-3.48,6.14-5.41,8.87
		C478.24,1377.64,470.17,1383.28,460.82,1387.91L460.82,1387.91z"/>
	<path class="st53" d="M693,1054c0.62-0.58,8.41-7.69,20.93-6.95c10.25,0.61,16.12,6.03,17.07,6.95"/>
	<path class="st53" d="M746,992c8.69,0,17.38,0,26.08,0"/>
	<path class="st53" d="M644,992c8.69,0,17.38,0,26.08,0"/>
	<g class="st48">
		<rect x="268.46" y="-67.65" width="33.12" height="5"/>
	</g>
	<g class="st48">
		<g>
			<circle cx="109.12" cy="-106.03" r="15.11"/>
			<circle class="st51" cx="100.77" cy="-104.83" r="4.37"/>
			<circle class="st51" cx="106.33" cy="-111.99" r="2.78"/>
		</g>
		<g>
			<circle cx="190.22" cy="-106.03" r="15.11"/>
			<circle class="st51" cx="198.57" cy="-104.83" r="4.37"/>
			<circle class="st51" cx="193" cy="-111.99" r="2.78"/>
		</g>
	</g>
	<path class="st61" d="M309.86-176.12l22.73,5l-22.73,5c-2.76,0.61-5.49-1.14-6.1-3.9C302.89-173.58,306.33-176.97,309.86-176.12
		L309.86-176.12z"/>
	<path class="st61" d="M227.25-166.12l-22.73-5l22.73-5c2.76-0.61,5.49,1.14,6.1,3.9C234.22-168.66,230.78-165.26,227.25-166.12
		L227.25-166.12z"/>
	<path class="st62" d="M284.95-108.88c6.1,0,12.2,0,18.3,0c4.94,0,9.88,0,14.82,0"/>
	<g class="st63">
		<polygon class="st64" points="498.31,-164.79 464.48,-180.01 497.44,-165.15 465.39,-146.61 498.04,-166.53 485.54,-131.66 
			507.64,-162.46 504.25,-125.91 521.03,-159.51 525.58,-122.58 541.77,-157.28 549.81,-121.01 563.43,-156.61 573.72,-120.93 
			585.45,-157.07 597.44,-121.93 607.52,-158.46 628.71,-124.87 642.39,-163.06 667.81,-132.32 675.1,-171.76 707.75,-147.94 
			693.84,-181.58 715.16,-205.26 682.26,-179.15 678.78,-216.59 659.68,-182.68 651.62,-219.37 635.27,-184.26 624.98,-220.38 
			610.32,-184.67 598.55,-220.32 585.29,-184.17 571.83,-219.23 560.7,-182.51 544.64,-216.48 536.82,-179.13 516.94,-211.11 
			514.68,-173.34 488.38,-200.66 		"/>
	</g>
	<rect x="-121.5" y="155.5" class="st65" width="43" height="35"/>
	<rect x="-121.5" y="198.5" class="st66" width="43" height="35"/>
	<rect x="-121.5" y="241.5" class="st67" width="43" height="35"/>
	<rect x="-121.5" y="286.5" class="st68" width="43" height="35"/>
	<rect x="-121.5" y="112.5" class="st69" width="43" height="35"/>
	<g id="Face-0-1_00000103974481876684126250000000537517388723890356_" class="st48">
		<path class="st70" d="M-506.45,180.8c-2.32,2.04-5.59,3.73-8.95,4.34c-2.58,29.8-27.57,53.19-58.03,53.19h-57.8
			c-30.46,0-55.45-23.38-58.03-53.17c-3.39-0.6-6.71-2.3-9.06-4.36c-7.35-6.44-5.96-17.03-5.23-22.66
			c0.6-4.56,1.93-14.74,7.85-16.56c1.96-0.61,4.09-0.19,6.2,0.88v-20.19c0-32.18,26.09-58.27,58.27-58.27h57.8
			c32.18,0,58.27,26.09,58.27,58.27v20.13c2.07-1.02,4.17-1.42,6.1-0.82c5.92,1.82,7.25,12,7.84,16.56
			C-500.48,163.77-499.1,174.36-506.45,180.8z"/>
		<path class="st71" d="M-665.36,214.51c-10.35-10.67-12.07-22.86-15-43.59c-4.15-29.36-8.52-60.34,10-77.5
			c6.8-6.3,25.3-8.48,62.01-12.59c43.55-4.88,52.12-2.45,59.01,1.94c13.41,8.54,17.74,22.79,22,36.81c9.23,30.36,1.51,56.27-3,70.72
			c-5.2,16.64-7.97,25.51-17,32.94c-14.07,11.57-32.05,10.38-57.01,8.72C-632.08,230.11-651.48,228.82-665.36,214.51z"/>
	</g>
</g>
</svg>
