<?xml version="1.0" encoding="utf-8"?>
<!-- Generator: Adobe Illustrator 26.4.1, SVG Export Plug-In . SVG Version: 6.00 Build 0)  -->
<svg version="1.1" id="Layer_1" xmlns="http://www.w3.org/2000/svg" xmlns:xlink="http://www.w3.org/1999/xlink" x="0px" y="0px"
	 viewBox="0 0 1280 720" style="enable-background:new 0 0 1280 720;" xml:space="preserve">
<style type="text/css">
	.st0{fill:#22C4CA;}
	.st1{fill:#606494;}
	.st2{fill:#9DA4F2;}
	.st3{fill:#D08CFF;}
	.st4{fill:#B7D6FF;}
	.st5{fill:#71C75F;}
	.st6{fill:#051F20;}
	.st7{fill:#E177D3;}
	.st8{fill:#FCF3B2;}
	.st9{fill:#B7F9C0;}
	.st10{fill:#DFE0EA;}
	.st11{font-family:'Musicals';}
	.st12{font-size:140px;}
	.st13{fill:#29EDF4;}
	.st14{fill:#CA22C4;}
	.st15{fill:#C4CA22;}
	.st16{fill:#D5D374;}
	.st17{fill:#9ED971;}
	.st18{fill:#9E89C5;}
	.st19{fill:#4A22CA;}
	.st20{fill:#CA8D22;}
	.st21{font-size:60px;}
	.st22{fill:#D5D22E;}
	.st23{fill:#81E038;}
	.st24{fill:#CA2822;}
	.st25{fill:#FFFFFF;}
</style>
<rect x="-1300" class="st0" width="1280" height="720"/>
<rect class="st1" width="1280" height="720"/>
<rect x="-1674" y="150" class="st2" width="100" height="100"/>
<rect x="-1774" y="150" class="st3" width="100" height="100"/>
<rect x="-1874" y="150" class="st4" width="100" height="100"/>
<rect x="-1974" class="st5" width="100" height="100"/>
<rect x="-1022" y="-289" class="st0" width="100" height="100"/>
<rect x="-922" y="-289" class="st6" width="100" height="100"/>
<rect x="-1774" class="st7" width="100" height="100"/>
<rect x="-1674" class="st8" width="100" height="100"/>
<rect x="-1974" y="150" class="st9" width="100" height="100"/>
<text transform="matrix(1 0 0 1 -1227.6248 209.6997)" class="st6 st11 st12">Cool Music Game</text>
<text transform="matrix(1 0 0 1 71.8015 207.7996)" class="st10 st11 st12">Cool Music Game</text>
<rect x="-728" y="-447" class="st13" width="300" height="100"/>
<rect x="-1547" y="-504" class="st13" width="300" height="100"/>
<rect x="-728" y="-328" class="st14" width="300" height="100"/>
<rect x="-728" y="-209" class="st15" width="300" height="100"/>
<rect x="515" y="547" class="st16" width="300" height="100"/>
<rect x="515" y="419" class="st17" width="300" height="100"/>
<rect x="515" y="291" class="st18" width="300" height="100"/>
<rect x="-1547" y="-378" class="st19" width="300" height="100"/>
<rect x="-1552" y="-252" class="st20" width="300" height="100"/>
<text transform="matrix(1 0 0 1 598.0876 359.6997)" class="st11 st21">PLAY</text>
<text transform="matrix(1 0 0 1 561.0979 492.6997)" class="st11 st21">UNlock</text>
<text transform="matrix(1 0 0 1 603.427 617.6997)" class="st11 st21">QUIT</text>
<rect x="-821" y="548" class="st16" width="300" height="100"/>
<rect x="-821" y="420" class="st17" width="300" height="100"/>
<rect x="-821" y="292" class="st18" width="300" height="100"/>
<text transform="matrix(1 0 0 1 -737.9124 360.6997)" class="st6 st11 st21">PLAY</text>
<text transform="matrix(1 0 0 1 -774.9021 493.6997)" class="st6 st11 st21">UNlock</text>
<text transform="matrix(1 0 0 1 -732.573 618.6997)" class="st6 st11 st21">QUIT</text>
<rect x="-1300" y="771" class="st0" width="1280" height="720"/>
<text transform="matrix(1 0 0 1 -1227.6248 980.6997)" class="st11 st12">Cool Music Game</text>
<rect x="-821" y="1319" class="st22" width="300" height="100"/>
<rect x="-821" y="1191" class="st23" width="300" height="100"/>
<rect x="-821" y="1063" class="st24" width="300" height="100"/>
<text transform="matrix(1 0 0 1 -736.5027 1131.6997)" style="font-family:'Marvin'; font-size:48px;">PLAY</text>
<text transform="matrix(1 0 0 1 -766.9592 1264.6997)" style="font-family:'Marvin'; font-size:48px;">UNlock</text>
<text transform="matrix(1 0 0 1 -735.0149 1389.6997)" style="font-family:'Marvin'; font-size:48px;">QUIT</text>
<g>
	<rect x="184" y="837" class="st25" width="70" height="200"/>
</g>
<g>
	<path class="st25" d="M348.81,883.04c-0.14-0.82-0.12-1.64,0.07-2.48c0.19-0.84,0.5-1.63,0.94-2.38c0.43-0.74,1-1.38,1.69-1.91
		c0.7-0.53,1.5-0.86,2.41-1.01c0.82-0.1,1.66,0.06,2.52,0.47c0.86,0.41,1.34,1.09,1.44,2.05c0.1,0.72-0.13,1.39-0.68,2.02
		c-0.55,0.62-1.19,0.98-1.91,1.08c-0.77,0.1-1.37-0.1-1.8-0.58c-0.43-0.48-0.79-1.01-1.08-1.58c-0.67,0.72-1.1,1.51-1.3,2.38
		c-0.19,0.86-0.19,1.75,0,2.66c0.29,1.39,0.76,2.62,1.4,3.67s1.38,2.04,2.2,2.95c0.82,0.91,1.68,1.81,2.59,2.7
		c0.91,0.89,1.78,1.86,2.59,2.92c0.82,1.06,1.54,2.23,2.16,3.53c0.62,1.3,1.05,2.83,1.3,4.61c0.24,1.82,0.19,3.67-0.14,5.54
		c-0.34,1.87-0.96,3.6-1.87,5.18c-0.91,1.58-2.1,2.94-3.56,4.07c-1.46,1.13-3.18,1.84-5.15,2.12c-1.15,0.14-2.27,0.08-3.35-0.18
		c-1.08-0.26-2.08-0.7-2.99-1.3c-0.91-0.6-1.68-1.37-2.3-2.3c-0.62-0.94-1.01-1.98-1.15-3.13c-0.14-1.06-0.08-2.08,0.18-3.06
		c0.26-0.98,0.71-1.87,1.33-2.66c0.62-0.79,1.37-1.45,2.23-1.98c0.86-0.53,1.82-0.86,2.88-1.01c0.91-0.14,1.77-0.07,2.59,0.22
		c0.82,0.29,1.55,0.7,2.2,1.22c0.65,0.53,1.19,1.18,1.62,1.94c0.43,0.77,0.72,1.58,0.86,2.45c0.14,1.06-0.07,1.99-0.65,2.81
		c-0.58,0.82-1.39,1.3-2.45,1.44c-0.53,0.1-1.22,0.04-2.09-0.18c-0.86-0.22-1.44-0.54-1.73-0.97c-0.1-0.19-0.1-0.31,0-0.36
		c0.1-0.05,0.22-0.05,0.36,0c0.24,0.05,0.51,0.11,0.83,0.18c0.31,0.07,0.59,0.08,0.83,0.04c0.33-0.05,0.67-0.18,1.01-0.4
		c0.33-0.22,0.64-0.48,0.9-0.79c0.26-0.31,0.48-0.66,0.65-1.04c0.17-0.38,0.23-0.74,0.18-1.08c-0.1-0.72-0.46-1.26-1.08-1.62
		c-0.62-0.36-1.27-0.49-1.94-0.4c-0.77,0.1-1.45,0.36-2.05,0.79c-0.6,0.43-1.09,0.96-1.48,1.58c-0.38,0.62-0.66,1.32-0.83,2.09
		c-0.17,0.77-0.21,1.51-0.11,2.23c0.19,1.25,0.71,2.16,1.55,2.74c0.84,0.58,1.86,0.79,3.06,0.65c1.25-0.19,2.33-0.59,3.24-1.19
		c0.91-0.6,1.66-1.34,2.23-2.23c0.58-0.89,0.97-1.88,1.19-2.99c0.22-1.1,0.25-2.23,0.11-3.38c-0.38-2.64-1.43-4.56-3.13-5.76
		c-1.7-1.2-3.85-1.61-6.44-1.22c-2.11,0.29-3.92,1.01-5.44,2.16c-1.51,1.15-2.75,2.48-3.71,4c-0.96,1.51-1.62,3.13-1.98,4.86
		c-0.36,1.73-0.44,3.31-0.25,4.75c0.24,1.68,0.86,3.31,1.87,4.9c1.01,1.58,2.23,2.95,3.67,4.1c1.44,1.15,3.05,2.03,4.82,2.63
		c1.77,0.6,3.55,0.78,5.33,0.54c2.16-0.33,4.06-1.24,5.69-2.7c1.63-1.46,2.98-3.13,4.03-5l2.95,1.15c0,1.2-0.52,2.54-1.55,4.03
		c-1.03,1.49-2.3,2.88-3.82,4.18c-1.51,1.3-3.1,2.41-4.75,3.35c-1.66,0.94-3.08,1.48-4.28,1.62c-3.36,0.48-6.5,0.28-9.43-0.61
		c-2.93-0.89-5.53-2.27-7.81-4.14c-2.28-1.87-4.15-4.15-5.62-6.84c-1.46-2.69-2.41-5.62-2.84-8.78c-0.43-2.88-0.3-5.88,0.4-9
		c0.69-3.12,1.86-6.01,3.49-8.68s3.68-4.94,6.16-6.84c2.47-1.9,5.29-3.06,8.46-3.49c1.2-0.14,2.29-0.17,3.28-0.07
		c0.98,0.1,2.05,0.29,3.2,0.58c-0.43-0.72-0.76-1.34-0.97-1.87c-0.22-0.53-0.4-1.01-0.54-1.44c-0.14-0.43-0.24-0.84-0.29-1.22
		C348.9,883.95,348.85,883.52,348.81,883.04z"/>
</g>
<g>
	<path class="st25" d="M397.94,935.87c0-0.53,0.18-1.1,0.54-1.73s0.77-1.26,1.22-1.91c0.46-0.65,0.92-1.27,1.4-1.87
		c0.48-0.6,0.84-1.14,1.08-1.62c-0.1-1.1-0.18-2.24-0.25-3.42c-0.07-1.18-0.11-2.32-0.11-3.42c0-5.09,0.08-10.06,0.25-14.9
		c0.17-4.85,0.61-9.82,1.33-14.9c-0.24-0.05-0.65-0.14-1.22-0.29c-0.58-0.14-1.18-0.32-1.8-0.54c-0.62-0.22-1.18-0.46-1.66-0.72
		c-0.48-0.26-0.77-0.52-0.86-0.76l0.94-1.01h1.22c1.54,0.05,2.89-0.12,4.07-0.5c1.18-0.38,2.27-0.86,3.28-1.44
		c1.01-0.58,1.97-1.21,2.88-1.91c0.91-0.7,1.88-1.34,2.92-1.94c1.03-0.6,2.16-1.1,3.38-1.51c1.22-0.41,2.65-0.61,4.28-0.61
		c2.21,0,4.2,0.46,5.98,1.37c1.78,0.91,3.35,2.12,4.72,3.64c1.37,1.51,2.56,3.25,3.56,5.22c1.01,1.97,1.84,4.01,2.48,6.12
		c0.65,2.11,1.13,4.21,1.44,6.3c0.31,2.09,0.47,4.02,0.47,5.8c0,4.85-0.59,8.72-1.76,11.63c-1.18,2.91-2.88,5.14-5.11,6.7
		c-2.23,1.56-4.97,2.59-8.21,3.1s-6.92,0.76-11.05,0.76c-0.82,0-1.84,0.05-3.06,0.14c-1.22,0.1-2.47,0.35-3.74,0.76
		c-1.27,0.41-2.51,1.04-3.71,1.91c-1.2,0.86-2.19,2.06-2.95,3.6l-1.08,0.14L397.94,935.87z M411.76,894.19
		c0,1.15,0.01,2.6,0.04,4.36c0.02,1.75,0.08,3.66,0.18,5.72c0.1,2.06,0.25,4.18,0.47,6.34s0.53,4.21,0.94,6.16
		c0.41,1.94,0.94,3.67,1.58,5.18c0.65,1.51,1.45,2.65,2.41,3.42c0.24-0.05,0.46-0.06,0.65-0.04c0.19,0.02,0.41,0.04,0.65,0.04
		c1.78,0,3.26-0.47,4.46-1.4c1.2-0.94,2.17-2.1,2.92-3.49c0.74-1.39,1.28-2.9,1.62-4.54c0.33-1.63,0.5-3.17,0.5-4.61
		c0-0.1,0-0.3,0-0.61c0-0.31-0.05-0.52-0.14-0.61c-0.05-1.25-0.37-2.88-0.97-4.9c-0.6-2.02-1.42-3.98-2.45-5.9
		c-1.03-1.92-2.21-3.58-3.53-4.97c-1.32-1.39-2.73-2.09-4.21-2.09c-0.86,0-1.75-0.04-2.66-0.11c-0.91-0.07-1.73,0.16-2.45,0.68
		V894.19z"/>
</g>
<g>
	<path class="st25" d="M511.36,926.32c-0.82-0.19-1.57-0.61-2.27-1.26c-0.7-0.65-1.04-1.57-1.04-2.77c0.05-1.1,0.31-1.82,0.79-2.16
		c0.48-0.33,1.01-0.55,1.58-0.65c-0.19-0.38-0.4-0.68-0.61-0.9s-0.56-0.44-1.04-0.68c-1.15-0.34-2.11-0.22-2.88,0.36
		c-0.77,0.58-1.37,1.45-1.8,2.63c-0.43,1.18-0.71,2.54-0.83,4.1c-0.12,1.56-0.13,3.17-0.04,4.82c0.1,1.66,0.28,3.25,0.54,4.79
		c0.26,1.54,0.56,2.83,0.9,3.89l-0.5,0.58c-0.72-0.77-1.5-1.31-2.34-1.62c-0.84-0.31-1.64-0.56-2.41-0.76
		c-1.97-0.48-4.07-0.72-6.3-0.72c-2.23,0-4.48,0.12-6.73,0.36c-2.26,0.24-4.44,0.55-6.55,0.94c-2.11,0.38-4.03,0.76-5.76,1.12
		c-1.73,0.36-3.2,0.65-4.43,0.86s-2.03,0.28-2.41,0.18l-1.44-0.5l-0.22-0.58c1.39-3.31,2.45-6.86,3.17-10.66
		c0.72-3.79,1.3-7.69,1.73-11.7c0.43-4.01,0.79-8.08,1.08-12.2c0.29-4.13,0.7-8.18,1.22-12.17l-0.43-0.86l-3.53-0.79l-1.73-1.66
		c-0.05-0.48,0.41-0.83,1.37-1.04c0.96-0.22,2.24-0.37,3.85-0.47c1.61-0.1,3.43-0.17,5.47-0.22c2.04-0.05,4.14-0.1,6.3-0.14
		c2.16-0.05,4.3-0.14,6.41-0.29c2.11-0.14,4.03-0.38,5.76-0.72c1.73-0.33,3.16-0.8,4.28-1.4c1.13-0.6,1.79-1.38,1.98-2.34l3.67,5.76
		c-0.62,1.1-1.18,2.44-1.66,4c-0.48,1.56-0.94,3.13-1.37,4.72c-0.43,1.58-0.86,3.07-1.3,4.46c-0.43,1.39-0.91,2.45-1.44,3.17
		c-0.38-0.1-0.65-0.33-0.79-0.72c-0.14-0.38-0.26-0.77-0.36-1.15c-0.14-0.72-0.21-1.4-0.18-2.05c0.02-0.65,0.06-1.27,0.11-1.87
		c0.05-0.6,0.1-1.21,0.14-1.84c0.05-0.62,0.02-1.27-0.07-1.94c-0.91,0.1-2.04,0.26-3.38,0.5c-1.34,0.24-2.7,0.52-4.07,0.83
		c-1.37,0.31-2.69,0.66-3.96,1.04c-1.27,0.38-2.34,0.75-3.2,1.08c-0.05,0.34-0.14,1.02-0.29,2.05c-0.14,1.03-0.29,2.12-0.43,3.28
		c-0.14,1.15-0.26,2.22-0.36,3.2c-0.1,0.98-0.12,1.6-0.07,1.84l0.14,0.65c0.33-0.38,0.92-0.98,1.76-1.8
		c0.84-0.82,1.74-1.64,2.7-2.48c0.96-0.84,1.87-1.56,2.74-2.16c0.86-0.6,1.49-0.85,1.87-0.76l2.95,4.97
		c-1.63,1.2-2.98,2.2-4.03,2.99c-1.06,0.79-1.94,1.67-2.66,2.63c-0.72,0.96-1.34,2.16-1.87,3.6c-0.53,1.44-1.06,3.38-1.58,5.83
		l-2.09-1.87c-0.24,0.72-0.35,1.69-0.32,2.92c0.02,1.22,0.16,2.32,0.4,3.28c2.78-0.19,5.6-0.14,8.46,0.14
		c2.85,0.29,5.77,0.7,8.75,1.22c0.24-1.49,0.51-2.95,0.83-4.39c0.31-1.44,0.76-2.7,1.33-3.78c0.58-1.08,1.34-1.88,2.3-2.41
		c0.96-0.53,2.23-0.6,3.82-0.22c0.48,0.1,0.98,0.32,1.51,0.68c0.53,0.36,1.03,0.82,1.51,1.37c0.48,0.55,0.89,1.15,1.22,1.8
		c0.34,0.65,0.55,1.31,0.65,1.98c0.24,1.25,0.13,2.3-0.32,3.17C513.1,926.25,512.37,926.56,511.36,926.32z"/>
</g>
<g>
	<path class="st25" d="M554.95,905.11c0.29-0.38,0.86-1,1.73-1.84c0.86-0.84,1.79-1.69,2.77-2.56c0.98-0.86,1.93-1.62,2.84-2.27
		c0.91-0.65,1.56-0.95,1.94-0.9l2.74,4.1c-1.63,1.3-2.99,2.36-4.07,3.2c-1.08,0.84-1.99,1.74-2.74,2.7
		c-0.74,0.96-1.39,2.11-1.94,3.46c-0.55,1.34-1.14,3.14-1.76,5.4l-2.09-1.37c-0.19,1.15-0.36,2.5-0.5,4.03
		c-0.14,1.54-0.23,3.12-0.25,4.75c-0.02,1.63-0.02,3.25,0,4.86c0.02,1.61,0.08,3.06,0.18,4.36c-0.34,0.1-0.92,0.24-1.76,0.43
		c-0.84,0.19-1.8,0.38-2.88,0.58c-1.08,0.19-2.21,0.4-3.38,0.61c-1.18,0.22-2.26,0.41-3.24,0.58c-0.98,0.17-1.8,0.3-2.45,0.4
		c-0.65,0.1-1,0.14-1.04,0.14l-1.44-0.29l-0.14-0.5c1.49-3.17,2.56-6.76,3.2-10.76c0.65-4.01,1.13-8.15,1.44-12.42
		c0.31-4.27,0.58-8.53,0.79-12.78c0.22-4.25,0.66-8.2,1.33-11.84l-0.43-0.72l-3.46-0.29l-1.58-1.22c0-0.43,0.47-0.76,1.4-0.97
		c0.94-0.22,2.18-0.37,3.74-0.47c1.56-0.1,3.36-0.17,5.4-0.22c2.04-0.05,4.13-0.12,6.26-0.22c2.13-0.1,4.25-0.23,6.34-0.4
		c2.09-0.17,3.97-0.42,5.65-0.76c1.68-0.33,3.1-0.79,4.25-1.37c1.15-0.58,1.85-1.3,2.09-2.16l3.38,4.75
		c-0.62,1.01-1.14,2.19-1.55,3.53c-0.41,1.34-0.77,2.69-1.08,4.03c-0.31,1.34-0.64,2.58-0.97,3.71c-0.34,1.13-0.74,2-1.22,2.63
		c-0.43-0.1-0.71-0.36-0.83-0.79c-0.12-0.43-0.23-0.84-0.32-1.22c-0.05-0.58-0.08-1.06-0.11-1.44c-0.02-0.38-0.04-0.73-0.04-1.04
		c0-0.31-0.01-0.65-0.04-1.01c-0.02-0.36-0.06-0.83-0.11-1.4c-0.58,0.14-1.2,0.23-1.87,0.25c-0.67,0.03-1.34,0.04-2.02,0.04
		c-0.67,0-1.33,0.02-1.98,0.07c-0.65,0.05-1.26,0.17-1.84,0.36c-1.44,0.48-2.6,0.77-3.49,0.86c-0.89,0.1-1.64,0.14-2.27,0.14
		s-1.18,0.02-1.66,0.07c-0.48,0.05-1.01,0.22-1.58,0.5c-0.05,1.58-0.04,2.89,0.04,3.92c0.07,1.03,0.16,1.98,0.25,2.84
		c0.09,0.86,0.19,1.74,0.29,2.63C554.98,902.73,555,903.82,554.95,905.11z"/>
</g>
<g>
	<path class="st25" d="M693.87,904.21c0,0.86,0.02,2.03,0.07,3.49c0.05,1.46,0.13,3.11,0.25,4.93c0.12,1.83,0.29,3.77,0.5,5.83
		c0.22,2.06,0.49,4.12,0.83,6.16s0.73,4,1.19,5.87c0.46,1.87,1,3.53,1.62,4.97c0.58,1.3,1.25,2.39,2.02,3.28
		c0.77,0.89,1.58,1.58,2.45,2.09c0.86,0.5,1.72,0.8,2.56,0.9c0.84,0.1,1.62,0,2.34-0.29c0.72-0.34,1.06-0.91,1.01-1.73l-0.14-0.29
		l-1.37,0.58c-0.67,0.33-1.42,0.31-2.23-0.07c-0.82-0.38-1.37-0.94-1.66-1.66c-0.34-0.82-0.37-1.58-0.11-2.3s0.8-1.25,1.62-1.58
		c1.1-0.43,2.1-0.35,2.99,0.25c0.89,0.6,1.52,1.36,1.91,2.27c0.19,0.48,0.32,1.01,0.4,1.58c0.07,0.58,0.05,1.15-0.07,1.73
		s-0.35,1.1-0.68,1.58c-0.34,0.48-0.82,0.89-1.44,1.22c-0.91,0.43-1.98,0.58-3.2,0.43c-1.22-0.14-2.47-0.44-3.74-0.9
		c-1.27-0.46-2.47-1.01-3.6-1.66c-1.13-0.65-2.03-1.24-2.7-1.76c-2.16-1.68-4.17-3.55-6.01-5.62c-1.85-2.06-3.54-4.42-5.08-7.06
		l-6.77,1.3c-0.29,0.48-0.46,0.95-0.5,1.4c-0.05,0.46-0.07,0.95-0.07,1.48c0,1.39,0.31,2.71,0.94,3.96c0.62,1.25,1.51,2.28,2.66,3.1
		c-0.53,0.1-1.06,0.14-1.58,0.14c-0.53,0-1.08,0-1.66,0c-2.45,0-4.88,0.3-7.31,0.9c-2.42,0.6-4.81,1.24-7.16,1.91l-0.29-0.14
		l0.07-0.36c1.34-1.01,2.65-2.47,3.92-4.39c1.27-1.92,2.45-4.09,3.53-6.52c1.08-2.42,2.06-4.99,2.95-7.7
		c0.89-2.71,1.64-5.38,2.27-7.99s1.1-5.09,1.44-7.42c0.33-2.33,0.5-4.28,0.5-5.87c0-1.82-0.47-3.41-1.4-4.75
		c-0.94-1.34-2.05-2.59-3.35-3.74c0.33-0.24,0.66-0.35,0.97-0.32c0.31,0.02,0.66,0.04,1.04,0.04c2.21,0,4.49-0.35,6.84-1.04
		c2.35-0.7,4.66-1.6,6.91-2.7c2.26-1.1,4.44-2.32,6.55-3.64c2.11-1.32,4.03-2.58,5.76-3.78l0.36,0.14c0,0.34-0.32,1.24-0.97,2.7
		c-0.65,1.46-1.37,3.29-2.16,5.47c-0.79,2.18-1.52,4.62-2.2,7.31C694.21,898.62,693.87,901.38,693.87,904.21z M682.21,919.69
		c0-0.72-0.06-1.55-0.18-2.48c-0.12-0.94-0.25-1.9-0.4-2.88c-0.14-0.98-0.29-1.96-0.43-2.92c-0.14-0.96-0.26-1.85-0.36-2.66
		c-0.19,0.48-0.47,1.31-0.83,2.48c-0.36,1.18-0.72,2.39-1.08,3.64s-0.67,2.44-0.94,3.56c-0.26,1.13-0.4,1.91-0.4,2.34
		c0,0.19,0.02,0.31,0.07,0.36c0.14,0,0.47-0.05,0.97-0.14c0.5-0.09,1.02-0.22,1.55-0.36c0.53-0.14,1-0.3,1.4-0.47
		C682,919.99,682.21,919.83,682.21,919.69z"/>
</g>
<g>
	<path class="st25" d="M619.52,910.67c0.67,0.24,1.21,0.62,1.62,1.15c0.41,0.53,0.66,1.13,0.76,1.8c0.14,0.86-0.05,1.62-0.58,2.27
		c-0.53,0.65-1.18,1.02-1.94,1.12c-0.86,0.14-1.58-0.12-2.16-0.79c-0.58-0.67-0.91-1.42-1.01-2.23c-0.24-1.68,0.06-3.18,0.9-4.5
		c0.84-1.32,2.03-2.1,3.56-2.34c1.49-0.24,2.86-0.19,4.1,0.14s2.35,0.86,3.31,1.58c0.96,0.72,1.75,1.6,2.38,2.63
		c0.62,1.03,1.01,2.12,1.15,3.28c0.24,1.83-0.05,3.67-0.86,5.54c-0.82,1.87-1.92,3.58-3.31,5.11c-1.39,1.54-2.95,2.84-4.68,3.92
		c-1.73,1.08-3.38,1.74-4.97,1.98c-3.36,0.53-6.44,0.32-9.25-0.61c-2.81-0.94-5.26-2.4-7.34-4.39c-2.09-1.99-3.79-4.42-5.11-7.27
		c-1.32-2.85-2.2-5.96-2.63-9.32c-0.43-3.02-0.34-6.23,0.29-9.61s1.7-6.54,3.24-9.47s3.5-5.44,5.9-7.52
		c2.4-2.09,5.18-3.37,8.35-3.85c2.11-0.29,4.12-0.12,6.01,0.5c1.9,0.62,3.62,1.6,5.18,2.92c1.56,1.32,2.92,2.89,4.07,4.72
		c1.15,1.82,2.02,3.79,2.59,5.9c0.05,0.14,0.18,0.16,0.4,0.04c0.22-0.12,0.49-0.29,0.83-0.5s0.68-0.46,1.04-0.72
		c0.36-0.26,0.68-0.47,0.97-0.61h0.86c0.24,0,0.44,0.03,0.61,0.07c0.17,0.05,0.25,0.12,0.25,0.22c-0.43,0.38-0.89,0.8-1.37,1.26
		c-0.48,0.46-0.98,0.97-1.51,1.55c-0.82,0.86-1.61,1.76-2.38,2.7c-0.77,0.94-1.51,1.88-2.23,2.84c-0.29,0.62-0.62,1.12-1.01,1.48
		c-0.38,0.36-0.74,0.76-1.08,1.19c-0.19-0.38-0.4-0.62-0.61-0.72c-0.22-0.1-0.42-0.31-0.61-0.65c0.14-0.38,0.42-0.82,0.83-1.3
		c0.41-0.48,0.73-0.96,0.97-1.44c0.29-0.72,0.49-1.39,0.61-2.02c0.12-0.62,0.13-1.01,0.04-1.15c-1.11-2.3-2.58-3.97-4.43-5
		c-1.85-1.03-4.04-1.36-6.59-0.97c-1.97,0.29-3.6,1.26-4.9,2.92c-1.3,1.66-2.32,3.6-3.06,5.83c-0.74,2.23-1.21,4.51-1.4,6.84
		c-0.19,2.33-0.19,4.33,0,6.01c0.24,1.92,0.7,3.62,1.37,5.11c0.67,1.49,1.55,2.71,2.63,3.67c1.08,0.96,2.39,1.62,3.92,1.98
		c1.54,0.36,3.29,0.4,5.26,0.11c1.1-0.14,2.12-0.38,3.06-0.72c0.94-0.34,1.75-0.79,2.45-1.37c0.7-0.58,1.24-1.32,1.62-2.23
		c0.38-0.91,0.53-2.02,0.43-3.31c-0.05-0.67-0.07-1.25-0.07-1.73c0-0.48-0.06-0.91-0.18-1.3c-0.12-0.38-0.32-0.74-0.61-1.08
		c-0.29-0.33-0.72-0.67-1.3-1.01c-0.86-0.53-1.8-0.74-2.81-0.65c-1.01,0.1-1.85,0.67-2.52,1.73L619.52,910.67z"/>
</g>
<g>
	<path class="st25" d="M767.69,943.77c-0.77,0.05-1.84,0.12-3.2,0.22c-1.37,0.1-2.81,0.2-4.32,0.32c-1.51,0.12-3.01,0.26-4.5,0.43
		c-1.49,0.17-2.76,0.35-3.82,0.54c-0.24,0.05-0.52,0.09-0.83,0.14c-0.31,0.05-0.59,0.12-0.83,0.22c-0.29,0.1-0.6,0.19-0.94,0.29
		l-0.86-2.02c1.44-0.19,2.78-0.55,4.03-1.08c1.06-0.43,2.08-1.01,3.06-1.73c0.98-0.72,1.6-1.7,1.84-2.95
		c-0.29-1.34-0.54-2.83-0.76-4.46c-0.22-1.63-0.42-3.31-0.61-5.04c-0.19-1.73-0.35-3.44-0.47-5.15c-0.12-1.7-0.2-3.3-0.25-4.79
		c-0.14-4.32-0.26-7.74-0.36-10.26c-0.1-2.52-0.05-4.48,0.14-5.87c0.1-0.58,0.04-1.2-0.18-1.87c-0.22-0.67-0.58-1.27-1.08-1.8
		s-1.13-0.91-1.87-1.15c-0.75-0.24-1.62-0.22-2.63,0.07l-0.94-0.22l-1.08-1.58c1.78-0.43,3.46-0.86,5.04-1.3
		c1.39-0.38,2.83-0.79,4.32-1.22c1.49-0.43,2.74-0.84,3.74-1.22c3.7-1.39,6.91-2.14,9.65-2.23c2.74-0.1,5.04,0.31,6.91,1.22
		c1.87,0.91,3.31,2.24,4.32,4c1.01,1.75,1.63,3.81,1.87,6.16c0.1,1.15,0.11,2.3,0.04,3.46c-0.07,1.15-0.32,2.24-0.76,3.28
		s-1.07,1.99-1.91,2.88c-0.84,0.89-1.98,1.67-3.42,2.34c2.16,0.24,4.12,0.72,5.87,1.44c1.75,0.72,3.29,1.61,4.61,2.66
		s2.39,2.26,3.2,3.6c0.82,1.34,1.34,2.74,1.58,4.18c0.34,2.11,0.41,4.21,0.22,6.3c-0.19,2.09-0.85,3.99-1.98,5.69
		c-1.13,1.7-2.82,3.13-5.08,4.28c-2.26,1.15-5.3,1.82-9.14,2.02c-0.53,0.14-1.17,0.23-1.91,0.25c-0.75,0.02-1.51,0.02-2.3,0
		c-0.79-0.02-1.58-0.05-2.38-0.07S768.26,943.72,767.69,943.77z M762.79,899.71c0.05,0.62,0.14,1.56,0.29,2.81
		c0.14,1.25,0.29,2.57,0.43,3.96c0.14,1.39,0.29,2.71,0.43,3.96c0.14,1.25,0.24,2.21,0.29,2.88c0.86,0.05,1.7,0.05,2.52,0
		c0.67-0.05,1.37-0.11,2.09-0.18s1.27-0.23,1.66-0.47c0.86-0.53,1.51-1.19,1.94-1.98c0.43-0.79,0.72-1.61,0.86-2.45
		c0.14-0.84,0.19-1.62,0.14-2.34c-0.05-0.72-0.1-1.3-0.14-1.73c-0.05-0.48-0.18-1.01-0.4-1.58c-0.22-0.58-0.53-1.13-0.94-1.66
		c-0.41-0.53-0.88-1-1.4-1.4c-0.53-0.41-1.15-0.71-1.87-0.9L762.79,899.71z M781.29,928.29c-0.05-1.34-0.34-2.58-0.86-3.71
		s-1.24-2.11-2.12-2.95c-0.89-0.84-1.88-1.48-2.99-1.91c-1.11-0.43-2.26-0.62-3.46-0.58c-0.19,0-0.6,0.04-1.22,0.11
		c-0.62,0.07-1.27,0.14-1.94,0.22c-0.67,0.07-1.3,0.14-1.87,0.22c-0.58,0.07-0.96,0.16-1.15,0.25c0.33,1.39,0.6,2.66,0.79,3.82
		c0.19,1.15,0.46,2.34,0.79,3.56c0.33,1.22,0.83,2.57,1.48,4.03c0.65,1.46,1.57,3.18,2.77,5.15c1.2-0.1,2.39-0.26,3.56-0.5
		c1.18-0.24,2.23-0.65,3.17-1.22c0.94-0.58,1.69-1.37,2.27-2.38S781.34,930.02,781.29,928.29z"/>
</g>
</svg>
